# xmcd
#
# Track frame offsets: 
#        150
#        18356
#        42855
#        119243
#        143656
#        246524
#        265447
#        282732
#
# Disc length: 3944 seconds
#
# Revision: 0
# Processed by: cddbd v1.5.2PL0 Copyright (c) Steve Scherf et al.
# Submitted via: ExactAudioCopy v0.95b3
#
DISCID=800f6608
DTITLE=Iron Butterfly  - Miami 1970
DYEAR=1900
DGENRE=
TTITLE0=Easy Rider
TTITLE1=New Day
TTITLE2=Shady Lady
TTITLE3=Best Years Of Our Lives
TTITLE4=Butterfly Bleu
TTITLE5=In A Gadda Da Vida Pt 1
TTITLE6=In A Gadda Da Vida Pt 2
TTITLE7=Iron Butterfly Theme
EXTD=
EXTT0=
EXTT1=
EXTT2=
EXTT3=
EXTT4=
EXTT5=
EXTT6=
EXTT7=
PLAYORDER=
